
<global>
amp_veltrack=0
ampeg_attack=0.005
ampeg_release=0.45
</global>

<group>
group_label=PP
lpc_hicc1=42
lpc_locc1=0

<region>
hivel=127
key=A#1
loop_end=184720
loop_mode=loop_continuous
loop_start=56145
loop_xfade=17808
lovel=0
lpc=nyyVQzs2CcR1TF1DLqS8wuzxAkPqszzBRBBIQg2FhsERs+xAz2ycwZF5+b+FFi7BJ9YZwW1c2MDjP58/kzxkP3/M50Dk2KRABd5VQEwYXcAhmiPA4teXP3ujO8BexChA
lpc_rms=-39.70
offset=821
sample=Cimbasso_sustain_PP_A#1.opus
</region>

<region>
hivel=127
key=A#2
loop_end=186072
loop_mode=loop_continuous
loop_start=56556
loop_xfade=17938
lovel=0
lpc=JeF6RLOeDsU1sa9E223wwzrpG0TuaQXDn0hNQusnJ8Oj+UZBkYX1wpGcQkIT86RCNVhTQZalzcIKq0zB/QUnQdexIELkGcRB0Zk1QXVPBkE5Uh/BL8ivwaO+EsJ0xQtC
lpc_rms=-27.78
offset=301
sample=Cimbasso_sustain_PP_A#2.opus
</region>

<region>
hivel=127
key=A#3
loop_end=183803
loop_mode=loop_continuous
loop_start=55866
loop_xfade=17719
lovel=0
lpc=bqWSQ1N7OcQlHhNETndlwwnkPkNYJLLCi4SLQMNDCsI1lABCvqjlwWd/X0G8LnZB8r4uwaR/qcEsNKVBYnUMwBsA6MCdMHM/Yqi9QEvT4kAzXojALRWJQF3TkcGg/SxB
lpc_rms=-35.52
sample=Cimbasso_sustain_PP_A#3.opus
</region>

<region>
hivel=127
key=A1
loop_end=192847
loop_mode=loop_continuous
loop_start=58615
loop_xfade=18591
lovel=0
lpc=mI2WQ9R2BMQFmkdDeH3CwlQM+kKX7CrBkD5cQuyTiMFbNglB/1OBwW2ci8AMEhnBl6OxwBnrIsFkM37A6fLxvsiAlUAWTEVBhKzLQKcWTkCQ3YbA5mZewH/haMHrCDpB
lpc_rms=-40.45
offset=11798
sample=Cimbasso_sustain_PP_A1.opus
</region>

<region>
hivel=127
key=A2
loop_end=186596
loop_mode=loop_continuous
loop_start=56715
loop_xfade=17988
lovel=0
lpc=b2wDRDNHkMSr5jRE6smTw3FakkPzwKbC7rWmQt1sh8ISQlRBTzM0ws6HM0FzT1dBknZuway2wsEWf0bA0j1ZQJFFE0Eyd4FBZkR+QEQCuEDqrZ7AUasNwZIqEsEeXxpB
lpc_rms=-32.52
sample=Cimbasso_sustain_PP_A2.opus
</region>

<region>
hivel=127
key=A3
loop_end=182563
loop_mode=loop_continuous
loop_start=55490
loop_xfade=17600
lovel=0
lpc=BXqjQ0sZS8RtlR5E0N1/w8d0VUOPObLCMvG8wNj2AcIupUFCOXkcwgrlR0GrWsVB/zypweKsIMJzRtpBpqlIQSPg08BpWlxAxgsFQRkFq8AexoLAuGWHQdq0EcLzm6NB
lpc_rms=-35.04
sample=Cimbasso_sustain_PP_A3.opus
</region>

<region>
hivel=127
key=B1
loop_end=188457
loop_mode=loop_continuous
loop_start=57281
loop_xfade=18168
lovel=0
lpc=yZSfQ7ytC8QfIEtD0tDbwikKDkMmTrDAoJhzQkrrq8HtWh5BFl28wdx0/L9UIErBjGy3v8570sAImdq/RaE5QHq2/T9/lqk/kfFGQKzq4z6Eu5zA+9TSPhBc/UDUaJLA
lpc_rms=-40.18
offset=681
sample=Cimbasso_sustain_PP_B1.opus
</region>

<region>
hivel=127
key=B2
loop_end=185989
loop_mode=loop_continuous
loop_start=56531
loop_xfade=17930
lovel=0
lpc=DK/NQ/GHbsQLaCdE3v6Ww+lJg0O1uUvCwVMNQoGIe8IMxzpBsTYpwp+nhEGBnplBR2ksQCGHCsJdZcg+CVPLQG47EMCrFBpBih5IQaw2hkBDASvB0N9Ovsg2wsDLCIlA
lpc_rms=-34.02
offset=772
sample=Cimbasso_sustain_PP_B2.opus
</region>

<region>
hivel=127
key=B3
loop_end=184766
loop_mode=loop_continuous
loop_start=56159
loop_xfade=17812
lovel=0
lpc=ysYCRINfr8RVo7VEpgaSxHKXekRR49DDQ3IhQmiS6sDe9pTBJsi3whnH7ULUMQpAm0WqwoUCL0L53XlBF0MVwp8AyELZn1jC7MAlwqCgPkLXKTbCIiT3QYuousHy64hB
lpc_rms=-26.04
offset=882
sample=Cimbasso_sustain_PP_B3.opus
</region>

<region>
hivel=127
key=C#2
loop_end=185094
loop_mode=loop_continuous
loop_start=56259
loop_xfade=17844
lovel=0
lpc=b/dJQ66DtcNV/wVDLw5YwtlarEJtIAXAsf3eQUS3ZcG0wIs/6ugZwe/DhT+0gY7A8cC6vyXABMG06mzALx5eQGc91T0dCjdA8bBBP9eed0DYBpa/ILEXP/Bwcr/rM9u+
lpc_rms=-43.72
offset=1323
sample=Cimbasso_sustain_PP_C#2.opus
</region>

<region>
hivel=127
key=C#3
loop_end=186921
loop_mode=loop_continuous
loop_start=56814
loop_xfade=18020
lovel=0
lpc=fmWBQ98mBcQjxYVDjE+bwvL//ULIwq3BpZ+iQYXVA8KnCY9AJhOIwY3fAkFxISJAmUQyv5h8esH9bpfAOtx6QOoLrUA3iexAA+mSvwE/skC4tJXAAUOQQFJVSsGJxspA
lpc_rms=-39.61
offset=299
sample=Cimbasso_sustain_PP_C#3.opus
</region>

<region>
hivel=127
key=C2
loop_end=196806
loop_mode=loop_continuous
loop_start=59819
loop_xfade=18973
lovel=0
lpc=h+QdQ9Y3i8N3dNdCSVZfwr4yhUIW1nTAdTnZQaZpGcHZOtNAi/oBwZ4u2b8tpI/Acy6gvXFBzMC0pYPANYVpvo+hBkDNYz9AzAFpQInMnL5YdLu/AoOevZkZ+j2++YS8
lpc_rms=-45.93
offset=12815
sample=Cimbasso_sustain_PP_C2.opus
</region>

<region>
hivel=127
key=C3
loop_end=185729
loop_mode=loop_continuous
loop_start=56452
loop_xfade=17905
lovel=0
lpc=0FaVQzihIsQwvbxDOfQEw4nmLEPLieLBYTXaQASTTcL6Ja1BOsBLweVVHUGFYmDAF8wJwWEzisGyKdU/ElwCQC1w7kAamERBn0XFQM0FgD+jol7BC02tPxachsDMZIlA
lpc_rms=-38.70
offset=374
sample=Cimbasso_sustain_PP_C3.opus
</region>

<region>
hivel=127
key=C4
loop_end=182997
loop_mode=loop_continuous
loop_start=55621
loop_xfade=17641
lovel=0
lpc=o81UQ79KEcQCQhRELzLIw4etlkNcmuTCXOTawVSaMEFHpjVA2a+5wezCTEKuOpXBdoUxwStM9cArXdNBlZT7wb95NUL5XkbCdFIAQs79dcE1xQdBmlmpwMvaj8Cfjr9A
lpc_rms=-34.23
offset=89
sample=Cimbasso_sustain_PP_C4.opus
</region>

<region>
hivel=127
key=D#2
loop_end=179933
loop_mode=loop_continuous
loop_start=54690
loop_xfade=17346
lovel=0
lpc=LryVQ7DnE8RNp4hDElPGwoyWFUMXLYLB55gtQqtCD8LmH+Q+sfWDwVONaUB2Gz3ApFgmwcFKT8GVZp2//6yoQCp6/kD24BhAhH71QH6nB8C9L8a/GZdxwNyNPUAZqcq/
lpc_rms=-40.38
offset=1095
sample=Cimbasso_sustain_PP_D#2.opus
</region>

<region>
hivel=127
key=D#3
loop_end=184043
loop_mode=loop_continuous
loop_start=55939
loop_xfade=17742
lovel=0
lpc=OFhzQwD0+sPvBYFDNhS7wnoLA0OZ/O7AiHWyQSzGFMIrYN7AcsiywS3xJEG7315BmQjHP0Apm8ELSODAVAkEQfzprEA9pnRAlZDKPcq4lT+FRg3ATp3Jv1+1Hj+VVyk9
lpc_rms=-40.07
offset=465
sample=Cimbasso_sustain_PP_D#3.opus
</region>

<region>
hivel=127
key=D2
loop_end=183426
loop_mode=loop_continuous
loop_start=55752
loop_xfade=17683
lovel=0
lpc=7/ipQ6bCMMTTyr5D2tELwxneKENP0dXBNLwoQoG4EsJpNKhAAdmywZAdqz+ATDnA+AYowTA4VcGPPaG+3jmDQb98OsC9ht9ADrPeQFu2lEDVzIrAj2DRwDp/3MDPw8pA
lpc_rms=-38.34
offset=1195
sample=Cimbasso_sustain_PP_D2.opus
</region>

<region>
hivel=127
key=D3
loop_end=186489
loop_mode=loop_continuous
loop_start=56683
loop_xfade=17978
lovel=0
lpc=OarhQ35RZcSfO+JDK1cTwxAmakNPLhXC0FwlQp6LV8KZgUZAYY0JwsP/6L7t0UdBfHfPQGpLg8Hv4aTB+w9nQUOdLEHsUrs/YxnYP5UCO8CVkUBALivrvpcttL5HLHu/
lpc_rms=-34.65
offset=830
sample=Cimbasso_sustain_PP_D3.opus
</region>

<region>
hivel=127
key=E1
loop_end=184999
loop_mode=loop_continuous
loop_start=56230
loop_xfade=17834
lovel=0
lpc=1c1SQxGJx8MKVyNDN+BOwsc2y0K8PSrBtMOYQWPHw8HSahe/r6H0wIxABEDV6f69c4XaOwQ6GcH1Nq8/OgKDQJfQMEBzah0+BjfnPXCvy78bRZW+NuwZwLE4GEB86QU/
lpc_rms=-42.60
offset=2334
sample=Cimbasso_sustain_PP_E1.opus
</region>

<region>
hivel=127
key=E2
loop_end=185694
loop_mode=loop_continuous
loop_start=56441
loop_xfade=17901
lovel=0
lpc=Yg1yQw/36MNlZ01DTnKbwi9+5EKt+SXBrrIXQkObyMFXeg/AUIkfwf8DxL9db62/qX+mwDAq0sDmMrjAxDW+QHu3xT8Lf4c/kDIyQBBM7j9XjcI+Gpm3PjsYtj/fFkLA
lpc_rms=-41.67
offset=477
sample=Cimbasso_sustain_PP_E2.opus
</region>

<region>
hivel=127
key=E3
loop_end=185211
loop_mode=loop_continuous
loop_start=56294
loop_xfade=17855
lovel=0
lpc=JIcZQ4lGocN1TypDLyU3whMZjEKaXgHBvnKUQIcUjsEfLXc/chu5wBN5oj/MLW++BvKKP/XrGsFB+x4/0ezIQDq0CUBgsXq/NMk7QK3r9j+v+gDAlUqzwEcfzD87kLQ/
lpc_rms=-43.70
offset=379
sample=Cimbasso_sustain_PP_E3.opus
</region>

<region>
hivel=127
key=F#1
loop_end=184613
loop_mode=loop_continuous
loop_start=56112
loop_xfade=17797
lovel=0
lpc=7+drQ+UH0cOARfdCHSgmwi3L2UIUtRVB9KrwQUY4esGRg9jA0iCNwWSsCsEsu7fAhhK5vcueJcDCMM89OVSHQC587j+jH5FADawFQHXF0r+j9hXAuzgNQEyvlcAugipA
lpc_rms=-44.08
offset=1506
sample=Cimbasso_sustain_PP_F#1.opus
</region>

<region>
hivel=127
key=F#2
loop_end=187753
loop_mode=loop_continuous
loop_start=57067
loop_xfade=18100
lovel=0
lpc=GQG6Q+OUNsRzeaFDozqnwgvAJUOHCwrCdRwPQqlsCcLYCOhAVze2wLsh6UB+UVXAsFZawUGfyMHVMAXBXs5SQY+LEEEVxhZB/1PGPvQzLsCigcrAVcATQJQrQEHpDxTB
lpc_rms=-38.45
offset=2149
sample=Cimbasso_sustain_PP_F#2.opus
</region>

<region>
hivel=127
key=F#3
loop_end=183886
loop_mode=loop_continuous
loop_start=55892
loop_xfade=17727
lovel=0
lpc=7x4PRNV3nsQHnTNEMRZRwwSWqUNqpobCN4mqQedXyMID3G28rtsPwov8G0HS881B10QvwdKbrMHT55vA3/m9QTePvkGXh41Bh3M9waKepMF+jm7B0jg7wGxGR0G/K3RA
lpc_rms=-31.35
offset=419
sample=Cimbasso_sustain_PP_F#3.opus
</region>

<region>
hivel=127
key=F1
loop_end=197101
loop_mode=loop_continuous
loop_start=59908
loop_xfade=19001
lovel=0
lpc=mqExQ2mKp8NdlwxDsv4zwkt8pEJaDm3BOwiBQUGhj8HUV88+ja4rwCGk7UB+JElAtOqlwJhwOsHL/IXAVQpJQMgCMkAWlYRAXnw+QDqbib88UyLAQuw2wO6YP74LKjRA
lpc_rms=-45.88
offset=10182
sample=Cimbasso_sustain_PP_F1.opus
</region>

<region>
hivel=127
key=F2
loop_end=186300
loop_mode=loop_continuous
loop_start=56625
loop_xfade=17960
lovel=0
lpc=CDpUQ5T318P5EFZD1giPwq/O8EJ1w/XB50rDQUuh5sE5LQZAJLWTwbDx5kDU7j9AUNYJQFx3NcCRCknA0lMWwP3Elb1gS7q+I9ORQKTnCcB5T1lAIfkcQBarLcByVTi/
lpc_rms=-42.71
offset=1043
sample=Cimbasso_sustain_PP_F2.opus
</region>

<region>
hivel=127
key=F3
loop_end=182397
loop_mode=loop_continuous
loop_start=55439
loop_xfade=17584
lovel=0
lpc=X9n8Q2GTjMRywC9EDneWw8fFqENpxjDCXQZCQWaCp8KY8khBP5V+wmHFIEJHqgZChw+bwQYFDsJUNTZByeSnQOn/OkH0ISNByleEwOyljb/9v9XAYuiYvhWW0MAW9/pA
lpc_rms=-31.98
offset=583
sample=Cimbasso_sustain_PP_F3.opus
</region>

<region>
hivel=127
key=G#1
loop_end=195123
loop_mode=loop_continuous
loop_start=59307
loop_xfade=18810
lovel=0
lpc=ZLs9Q+B3ncOAiMVCAIJrwkYPjkKSodE+11YOQt+x6z8EslxA2eMiwXDjAcC6TRXBn27cwKpom8C79kDAvqvQvG2MWUAMhoVAOfU5QBU0Q0AqmNG/88ehvwBbR8Dl8/0/
lpc_rms=-44.30
offset=15664
sample=Cimbasso_sustain_PP_G#1.opus
</region>

<region>
hivel=127
key=G#2
loop_end=185618
loop_mode=loop_continuous
loop_start=56418
loop_xfade=17894
lovel=0
lpc=FH66Q9FVTMTl/f1D0Uk9w5y4PkONp4HCK2NbQn6FV8LDQ5JBJBITwXcRKUDxhlZAkXs6wQQugMHwlrXAA738v2VjDEHwww9BiM+iQIX7AkABMAHB6loyQAibv0BI/MvA
lpc_rms=-36.18
offset=1
sample=Cimbasso_sustain_PP_G#2.opus
</region>

<region>
hivel=127
key=G#3
loop_end=176737
loop_mode=loop_continuous
loop_start=53719
loop_xfade=17038
lovel=0
lpc=wMaGQ3QDI8TtQetD20w5wzxbOUOPdinCqYQhweteY8I6Z4VBWZFHwZP0wUFn5wlBFeyOwbZiw8G7VplBfKENQba3nr9cqRdBn069Pwn8ysDjNBrBhmApQGKg978TQYtA
lpc_rms=-36.73
offset=1414
sample=Cimbasso_sustain_PP_G#3.opus
</region>

<region>
hivel=127
key=G1
loop_end=195415
loop_mode=loop_continuous
loop_start=59396
loop_xfade=18839
lovel=0
lpc=tjAgQ3RxfsN3jppCYSRWwkB4UELn9Xy/csHvQSV+gj8emelAWAGewHTupz53rI7AEoxZwHKI0MBneIvAGJywv5uFdj1XLSFA09JcQCbtpD+3vJu/jkbzvG8o378Rnd0/
lpc_rms=-46.65
offset=13009
sample=Cimbasso_sustain_PP_G1.opus
</region>

<region>
hivel=127
key=G2
loop_end=181902
loop_mode=loop_continuous
loop_start=55288
loop_xfade=17536
lovel=0
lpc=GrB0Q1AfAMTVEI1D2KuwwthC7kILxzjCCH/hQcX/lcHIW7NAlukqwcejYj89LzBAQwfLwG5OssA4TPI/hKxAwHeJAUD0DEo/0/ItQAWlO0DWUjO/3D6WvXXj67+5DB4/
lpc_rms=-40.75
offset=7297
sample=Cimbasso_sustain_PP_G2.opus
</region>

<region>
hivel=127
key=G3
loop_end=183937
loop_mode=loop_continuous
loop_start=55907
loop_xfade=17732
lovel=0
lpc=+ip3Q9uwBMQ+f5hD9efawkPyCENfCATCPA/KQWwwAcI4obJAs3iXwcYCCEG7PyO+qgJ+wD3HK8Hfs7M/fgnQQM8UPj8dBTBAQVBBv5wGpEDfjB3AwD4SwILwfz+JiDS/
lpc_rms=-39.73
offset=1510
sample=Cimbasso_sustain_PP_G3.opus
</region>
</group>

<group>
group_label=MF
lpc_hicc1=84
lpc_locc1=43

<region>
hivel=127
key=A#1
loop_end=188332
loop_mode=loop_continuous
loop_start=57243
loop_xfade=18156
lovel=0
lpc=gYuoQ8Pmb8RWJWBE7AW6w9q4g0PTSE3DHH6zQma1ucIN9y9CICAAwjT27EHw5I5Ac7QTQD0eA8HzIwxB8VTewBGwX0Dmz7hAXIzJQFjB3sFabp6+e5hXQOCk1kGwbYPB
lpc_rms=-32.60
offset=832
sample=Cimbasso_sustain_MF_A#1.opus
</region>

<region>
hivel=127
key=A#2
loop_end=187155
loop_mode=loop_continuous
loop_start=56885
loop_xfade=18042
lovel=0
lpc=HDrpQ6CaocRUdKNEFMp9xK8ciEQXFzPEcASRQ9lnP8P+iiBCmlUpQRjEW0HV4UHBhguLQcDvjMExHLm/lPoFQbDafkF+ns3BABE7QgsYj8EwgaDBmwTGwZX5GkL+dRLB
lpc_rms=-25.94
sample=Cimbasso_sustain_MF_A#2.opus
</region>

<region>
hivel=127
key=A#3
loop_end=184954
loop_mode=loop_continuous
loop_start=56216
loop_xfade=17830
lovel=0
lpc=aZRtQ+J1MsQ4nk1EVMAqxKFQOkTBHRzEIbKWQ+QI7ML/SwZBAp0jQuook8Hc1yLBlnNqQYFolEEZlIzBHISYwWdDGUG96S3BhbFmQt+WeMK4+h9Cd74EwiqGXkEAnE4/
lpc_rms=-28.71
sample=Cimbasso_sustain_MF_A#3.opus
</region>

<region>
hivel=127
key=A1
loop_end=191187
loop_mode=loop_continuous
loop_start=58111
loop_xfade=18431
lovel=0
lpc=D1jUQ9UdjsQ2X3FEs+K0w02Mj0N0VVjD+47GQoU8tMKLdiBCJS8Awobrp0FU9pnBkZOOQAM/fMBLKY1BztqyQfeJZsDQ7XtA25OkwXFfRMHw8TLBCLeXQSxUPkENIQvB
lpc_rms=-31.75
offset=554
sample=Cimbasso_sustain_MF_A1.opus
</region>

<region>
hivel=127
key=A2
loop_end=188366
loop_mode=loop_continuous
loop_start=57253
loop_xfade=18159
lovel=0
lpc=xyLmQ0CDnsSkWptEgJlWxORCW0RqIBfEh1drQ3y1ysJDjxhCw8Qkwi9mr0FxqJvBUkklwYuZKUEAgCRBtPYrQpvDDMK3HBfB6pYnQWrfEELr0IjCQcovQvLh2cFkPFtB
lpc_rms=-27.26
offset=434
sample=Cimbasso_sustain_MF_A2.opus
</region>

<region>
hivel=127
key=A3
loop_end=187899
loop_mode=loop_continuous
loop_start=57111
loop_xfade=18114
lovel=0
lpc=+oA7Q59+DMSMCx9EduDuw7Xl6kN1isfDYIxcQ2yVAMMfZ8ZCAzmdwp3K10HfyoNA0lGuQV4TXMHkLSHCZj81Qto4PEFAT9TB6Z3CwH31sT8Ntd5Af9WNQULRvsHPMPJA
lpc_rms=-30.34
offset=195
sample=Cimbasso_sustain_MF_A3.opus
</region>

<region>
hivel=127
key=B1
loop_end=188555
loop_mode=loop_continuous
loop_start=57311
loop_xfade=18177
lovel=0
lpc=WaaWQ9RFY8Sd/mxEE6ziw08VlUOfmI7DEXbwQs9cbsI5e6VCptqNwsPje0GfjAhCKpwOwhL5q0A6KQ5CzIbywcveRsFMWOtBMBhCwVRCqMFdqrtBrCuKQWPuD8KV32lB
lpc_rms=-32.62
offset=61
sample=Cimbasso_sustain_MF_B1.opus
</region>

<region>
hivel=127
key=B2
loop_end=189601
loop_mode=loop_continuous
loop_start=57629
loop_xfade=18278
lovel=0
lpc=ktzrQ2Rcn8Sj1ZVEotA/xHr+PkS2nfXDv7gjQ4Te2cLIlKpCjViFwovT1kF7So9BBasZwllercH3NQJCJSLgQSkzs8AGgYDB1YI2QM53gEEkzUzCcKuMQqDFUMK8GoNB
lpc_rms=-27.40
offset=31
sample=Cimbasso_sustain_MF_B2.opus
</region>

<region>
hivel=127
key=B3
loop_end=187566
loop_mode=loop_continuous
loop_start=57010
loop_xfade=18082
lovel=0
lpc=EVEQRBD7zsSFLN9EUtCnxKXSm0R1p1PEiwjZQ0R4o8NAQkRD2YAYw9Klt0K4nM7BdIxGQfSoJEIK4S3C0bXyQR1ZSMGk81/BstfOwXcjh0JsL2XCGwiRQYU6c0ATPwS/
lpc_rms=-21.00
offset=713
sample=Cimbasso_sustain_MF_B3.opus
</region>

<region>
hivel=127
key=C#2
loop_end=190123
loop_mode=loop_continuous
loop_start=57787
loop_xfade=18328
lovel=0
lpc=QjQ2Q2tFDcT2AB1EDP+iw/WkQUOLAkzDTwPiQp2sF8KsGy1CVd8nwsJtdkFRrwJBqwOwwWP+d0EbbcdA6TBFwT1/kb+s1hVBc+LvQHg57cFTccJBvWQXv8pwIsFDCo9A
lpc_rms=-34.36
offset=510
sample=Cimbasso_sustain_MF_C#2.opus
</region>

<region>
hivel=127
key=C#3
loop_end=187161
loop_mode=loop_continuous
loop_start=56887
loop_xfade=18043
lovel=0
lpc=uBipQ/NOeMQ8+3dE1x0FxEQT+kMqscfDSK8CQ7cV3cIaPqhCz5aVwT4cAUEYW4BBhKU5waqS4sGGdQpCuIQHvxDspL/MMBvBhRBQQa5vfsEZENPBWz5vQtW0CMJUKL5A
lpc_rms=-29.95
offset=302
sample=Cimbasso_sustain_MF_C#3.opus
</region>

<region>
hivel=127
key=C2
loop_end=189804
loop_mode=loop_continuous
loop_start=57690
loop_xfade=18298
lovel=0
lpc=D84YQ2wS1sPwCslDoCUtw9lKAkOB++vCTlMOQlYC9cDORHFB6B2hwcBSlkGDK4vAvf0+wUnouECx0RRB6OAIwSUUpj8qwxpAMSZOQMYVI8D1c73A1KQHQT4XHsHRbatA
lpc_rms=-39.98
offset=359
sample=Cimbasso_sustain_MF_C2.opus
</region>

<region>
hivel=127
key=C3
loop_end=189442
loop_mode=loop_continuous
loop_start=57580
loop_xfade=18263
lovel=0
lpc=fRRwQz4kKcRk+y1EZJQCxL9ICkSHMMDDLjMeQ4co0cI9K0pCaUvjwfw470AOv/y/4/8QQY036EGV1srBQL9/QCszEcFZnQJB7XWnvkwTgD+CX5vA38mCwP5KuUB5Qa88
lpc_rms=-31.28
offset=1012
sample=Cimbasso_sustain_MF_C3.opus
</region>

<region>
hivel=127
key=C4
loop_end=188911
loop_mode=loop_continuous
loop_start=57419
loop_xfade=18212
lovel=0
lpc=+HCEQyxCPsQ4sVFEag0dxPuhDkTAzsrDY/0mQ6Gt1MIGbr9CeIiUwtlAwELm/IjCEeytwWbdf0Kjx1zCf+EgQpGXOsF4QJ3ARNbIQMY76MEsbihC0Ycrv3/HLcJXEc1B
lpc_rms=-29.78
sample=Cimbasso_sustain_MF_C4.opus
</region>

<region>
hivel=127
key=D#2
loop_end=180066
loop_mode=loop_continuous
loop_start=54731
loop_xfade=17359
lovel=0
lpc=Cvc1QwScDcQoAyFECKzAw4pEjUNDz4DDgPH6QtxJKsKpc1NCH6OgwmlxbkK8qgxBfZcNws9UkkC/C4xBr2MwwcTbh8H+1SNCvSyMwQkCy8ELwvRBLAVnwBFuV8F07OFA
lpc_rms=-34.31
offset=428
sample=Cimbasso_sustain_MF_D#2.opus
</region>

<region>
hivel=127
key=D#3
loop_end=188552
loop_mode=loop_continuous
loop_start=57310
loop_xfade=18177
lovel=0
lpc=hW+0Q1MOgcS1FoFE034uxC5cR0QD7xrEO0mIQ4xCWcNP25hCuz1BP81MU0HIJj5CkG3OwEfDwMF+2es/BDvEwUTX9r9xaB1CMRUpwX54M8DsFI7B59JOQVjhg0BggHTA
lpc_rms=-28.56
offset=2392
sample=Cimbasso_sustain_MF_D#3.opus
</region>

<region>
hivel=127
key=D2
loop_end=189493
loop_mode=loop_continuous
loop_start=57596
loop_xfade=18268
lovel=0
lpc=QuWOQ5b4VMSbM1xELh/Xwxegj0OVj3/DX1G0Qs99tMFvsw9C/uAdwiXr4EH5pt9A9tAFwr8oeEBAT/VBJ50EwcNon8EJSrpBK6+iwKqK6MFU5stBm6eLQY3K/sEejzxB
lpc_rms=-32.13
offset=828
sample=Cimbasso_sustain_MF_D2.opus
</region>

<region>
hivel=127
key=D3
loop_end=188906
loop_mode=loop_continuous
loop_start=57417
loop_xfade=18211
lovel=0
lpc=9A7PQ+qUk8TtTJNEDIA5xFebOERi4wHE2xYEQ9UGKMI7YXhBhze0wWhUVkJ/aqHB7v8/wUcqIMGV0J3APj/sQQ/cPEEnBoHBqV1wQOnUjz4mWJ3BuCUSQVkyvj+XId4/
lpc_rms=-28.72
offset=477
sample=Cimbasso_sustain_MF_D3.opus
</region>

<region>
hivel=127
key=E1
loop_end=189154
loop_mode=loop_continuous
loop_start=57493
loop_xfade=18235
lovel=0
lpc=zyiOQ9eAQMSE5idEfdSVw5DJhkMXphbDVtaiQRs5PsKL2jtBcQmLwZcE4kFwqVNB3vHhwY2/uT8Cr0pBew2aQZFiRsFIT61AhVIHwE6Wp8ErQ7DAC8dQQSTXQ0HkLgXB
lpc_rms=-34.87
offset=1133
sample=Cimbasso_sustain_MF_E1.opus
</region>

<region>
hivel=127
key=E2
loop_end=187656
loop_mode=loop_continuous
loop_start=57038
loop_xfade=18091
lovel=0
lpc=LyilQ80EgcT9qIxER9cPxOEcyEMQxb7DTkIbQ8opvsLVjvlC2dSgwoDmAEKwBuVBGjEWwqfwOcHDgstB7uGvwDnboMHf4gRCvBZAwMQxF8LceAZCcwkgQMAgqMEwfiFB
lpc_rms=-29.43
offset=452
sample=Cimbasso_sustain_MF_E2.opus
</region>

<region>
hivel=127
key=E3
loop_end=191898
loop_mode=loop_continuous
loop_start=58327
loop_xfade=18500
lovel=0
lpc=E26aQ4OLTMRWFS9EvBO/w/3q0kNf9lfDHn5IQeUJbcKSP81BcKjAwQaxHEI1eIHA4aJXwQ8pkMEhQLlBpt+FQaDpy0DzuhnB9hA+Qe4o8MH8Pa/ACb9xwbdeUELCJLXB
lpc_rms=-32.69
offset=306
sample=Cimbasso_sustain_MF_E3.opus
</region>

<region>
hivel=127
key=F#1
loop_end=188910
loop_mode=loop_continuous
loop_start=57419
loop_xfade=18211
lovel=0
lpc=0PaVQ1yOO8RO2wBEYVCgwuzGEEMjMvvCd1RiQSczPMKuzr5BeoVYwYlBmUHTu4lABABWwGPQ/8D9TZa+uu1VQGBnLkG4trpA800iwOwMNMHlUx/BNVFWQMFLBEGjhIi/
lpc_rms=-37.69
offset=621
sample=Cimbasso_sustain_MF_F#1.opus
</region>

<region>
hivel=127
key=F#2
loop_end=189369
loop_mode=loop_continuous
loop_start=57558
loop_xfade=18256
lovel=0
lpc=ENrhQ3q1nsSTto9E8lriwx3PvEPC0qPDRP/KQmcAv8LTGrhCHZVnwobxBUIWWYJBRRF5we3CmcFbzKJBa83gwNGbCsH7Iq1BD2i8QJ/imcGQdpTA3GHcQFRnYz8h10q8
lpc_rms=-29.51
offset=48
sample=Cimbasso_sustain_MF_F#2.opus
</region>

<region>
hivel=127
key=F#3
loop_end=187077
loop_mode=loop_continuous
loop_start=56862
loop_xfade=18035
lovel=0
lpc=CvAYRAZV5MRoCOJEYHBtxC3/gUQ6Q1nE3qlVQ3hjQsPJZtFCmKgGQgnDF0IvWohC6alQQOKWPMJPcePCl8MAQqUeKUK7XFhBVtJ4wWDtPEJspSXCtZSBQY0gIMK798lB
lpc_rms=-24.85
offset=1279
sample=Cimbasso_sustain_MF_F#3.opus
</region>

<region>
hivel=127
key=F1
loop_end=188566
loop_mode=loop_continuous
loop_start=57314
loop_xfade=18178
lovel=0
lpc=2yWHQ5lAKMRM9/9DOEdaw/zYWkOF3p7CxJZ+QTMzUsLoNB3BJ4CUwYqWHULImiNAWkzywIeOgb9/exDATOjKwJ6qgkC3c6ZBAIIvwP1oMMGx4hTB16QXQQCPZcDPhBtA
lpc_rms=-36.79
offset=1256
sample=Cimbasso_sustain_MF_F1.opus
</region>

<region>
hivel=127
key=F2
loop_end=190659
loop_mode=loop_continuous
loop_start=57950
loop_xfade=18380
lovel=0
lpc=KWeVQ/KgYMSAcGNE7Azaw8NJxENj4MXDJtwUQ8cxssIwwNxCI22UwtOFTkIWcDtB38s6wqTfOEFqBde/d/DPQalLK8I88jdCvDyswUsFl8FuM6lBZ1KnQJoYJ8H3XxJA
lpc_rms=-30.50
offset=1616
sample=Cimbasso_sustain_MF_F2.opus
</region>

<region>
hivel=127
key=F3
loop_end=189032
loop_mode=loop_continuous
loop_start=57456
loop_xfade=18223
lovel=0
lpc=ry4KRO9xssSpTZdEyJwjxIlRG0TDnnPDABRxwXh3zcJmzCJCc70jwn7W00J3ivjB4d4RwqqOZEG5+4RAGC8PQbF/UsExVFRBo7JhQZ3LJsEQwirCVkxhQgzPIMICgoRB
lpc_rms=-28.56
offset=828
sample=Cimbasso_sustain_MF_F3.opus
</region>

<region>
hivel=127
key=G#1
loop_end=191189
loop_mode=loop_continuous
loop_start=58111
loop_xfade=18431
lovel=0
lpc=pAydQ+etUcTGPC9E4iBxwwl7RkOFvxzDQetbQnymeMJqwCNCgT+qwSFycEGenFrB/LILwLvIuMAqnJVBmsUuQXa36UBr5c/ATbZuwSxhSsH2zWI/MJRmQY//BUG1mhLB
lpc_rms=-35.19
offset=484
sample=Cimbasso_sustain_MF_G#1.opus
</region>

<region>
hivel=127
key=G#2
loop_end=189369
loop_mode=loop_continuous
loop_start=57558
loop_xfade=18256
lovel=0
lpc=FPHCQw1kh8TJenxEq1gPxKZ5F0QavtrDtiobQ78X7cLS9ThChOV0wQ9G5UCEA6JBQ9WSwTblKEEiau9Ad38CQSqhZsHv149AM9WcQR+bLcIu3m3AAuuxQVEUc0FXIGXB
lpc_rms=-29.54
offset=15
sample=Cimbasso_sustain_MF_G#2.opus
</region>

<region>
hivel=127
key=G#3
loop_end=187515
loop_mode=loop_continuous
loop_start=56995
loop_xfade=18077
lovel=0
lpc=OMOjQ5fAesTsXYpEQnE3xC8jMUS1hRrEUiWiQ1hMPcPu9KpCleBGwnxRkUHepXBCnIH/vzuswcH3ZYXCNaCeQi+QC8GGiO7B3F3cQNEUikFe26PBl9UiQodzPsKEGZRB
lpc_rms=-27.94
offset=133
sample=Cimbasso_sustain_MF_G#3.opus
</region>

<region>
hivel=127
key=G1
loop_end=190035
loop_mode=loop_continuous
loop_start=57760
loop_xfade=18320
lovel=0
lpc=9baLQ9tuL8SogQtEOUZiw2v6MkN9rejC64uoQnbkR8LTv/pAVMXrwVnISEHvqZu/hlEdwC2CQcE6awlBPuddQYLrH0G9BzHA0SSywGE8R8A+t1zB0n03QVoHUL9JRGA/
lpc_rms=-36.34
offset=566
sample=Cimbasso_sustain_MF_G1.opus
</region>

<region>
hivel=127
key=G2
loop_end=187685
loop_mode=loop_continuous
loop_start=57046
loop_xfade=18093
lovel=0
lpc=0qF5Q+0ZKcQcKBdEPRKTw7NnhUOlkCfDyUMEQiiQxMHDZ5pA8le+weE0FELIU8Q+oKYnwcYUY8ABwkVAF62BwcvKYUGQUHZBAW5HQeCQxMFFfyDBJ7jRvgxwf0GlKarA
lpc_rms=-35.46
offset=506
sample=Cimbasso_sustain_MF_G2.opus
</region>

<region>
hivel=127
key=G3
loop_end=188320
loop_mode=loop_continuous
loop_start=57239
loop_xfade=18155
lovel=0
lpc=JSyDQ9juQsQzXVREqp4IxBWK5EOKqcXDeuhfQ5vlkMLpstZBuQFXwkpFvb9bBhVCKoWywLlpdj6hkkfBSI12QZA72kFGEx3CJsFoQA8X3D9hfXTBKS+dQVXZhUAI5dTA
lpc_rms=-31.47
offset=295
sample=Cimbasso_sustain_MF_G3.opus
</region>
</group>

<group>
group_label=FF
lpc_hicc1=127
lpc_locc1=85

<region>
hivel=127
key=A#1
loop_end=186159
loop_mode=loop_continuous
loop_start=56583
loop_xfade=17946
lovel=0
lpc=y7gRQweM/8P6aTNEMzcDxDhxgENa7iDDgpUDQwMUp8Jf32FC+Bp4wnQiaUIRLN/BJ1ZCP9AVtz4AxrE/Q4d/QerN/MG9V8JB5nIVwSJND0F8taXB313qQaJFtcHmAudA
lpc_rms=-27.77
offset=597
sample=Cimbasso_sustain_FF_A#1.opus
</region>

<region>
hivel=127
key=A#2
loop_end=186016
loop_mode=loop_continuous
loop_start=56539
loop_xfade=17932
lovel=0
lpc=AjFZQ2J9S8Q1TZtE/5F/xKq/FESDOdTDlbyzQ/13YsNbPAxDek4ew8h6G0Otv5HCeqUtwcO1B0IBA8rB200cQlA6gsIBJYVCMQBMwshMBUKmq7jBzgPiQZ5P2MGFQx5B
lpc_rms=-22.27
offset=740
sample=Cimbasso_sustain_FF_A#2.opus
</region>

<region>
hivel=127
key=A#3
loop_end=187798
loop_mode=loop_continuous
loop_start=57081
loop_xfade=18104
lovel=0
lpc=k0gNQ/hD5sOxZBFEoJXXw4fiukMjN8PDaPebQzSvcMNIvElDD4UBw3xPWEL5/R3A1Y2bwBWq0cGisZRBT4LYQXB3CcLoyLtAAPAiQE70bkH/QMPBcZ+nQRR6ZcGN3KFA
lpc_rms=-22.02
offset=730
sample=Cimbasso_sustain_FF_A#3.opus
</region>

<region>
hivel=127
key=A1
loop_end=180028
loop_mode=loop_continuous
loop_start=54719
loop_xfade=17355
lovel=0
lpc=z1T6QhZq28O+jx1EpEH1w+2TfUNLngrDhdviQgC/tsIwQl5CW17/wcnlwUFQEVbBcNcOP5NEZ0DbYvDAdh2UQWQ3pcEkqZlA4qniQD67QT/GF3nBa0yhQRlEPcFNOilA
lpc_rms=-28.43
offset=578
sample=Cimbasso_sustain_FF_A1.opus
</region>

<region>
hivel=127
key=A2
loop_end=190154
loop_mode=loop_continuous
loop_start=57797
loop_xfade=18331
lovel=0
lpc=G4M7QziaJcSHU2hEcZksxBWewUPxEZXD0Od8Qz/JIcO8Dr5CNWSVwou2WEIBHIXBxTeHwCqeZcACZhhA+SLCQYSdIMLOvMdBwwsFwcOu3kDDi/zAq0tOQdcYgcGtpdxA
lpc_rms=-25.04
offset=108
sample=Cimbasso_sustain_FF_A2.opus
</region>

<region>
hivel=127
key=A3
loop_end=189367
loop_mode=loop_continuous
loop_start=57558
loop_xfade=18255
lovel=0
lpc=wArTQulJpMPw0cNDQXOGw3vpUUNY0EDDk+gLQ/Su58Kw8dxCIVK2wu3+g0JuSQvCd7qjQdND18GGlI1BDbTSQJb6j8Ekz4hBwpi4wVE07kEVHq7BQblhQaaJQsEnhKNA
lpc_rms=-24.46
offset=622
sample=Cimbasso_sustain_FF_A3.opus
</region>

<region>
hivel=127
key=B1
loop_end=167849
loop_mode=loop_continuous
loop_start=51017
loop_xfade=16181
lovel=0
lpc=NmeCQgG4d8OfkNhDebTywxA7zkMl2ZPD4mtBQwtl9sKtQ6VC+Wh+wnrGT0I/RRHCD9pvQVCsl0B4VpLBAJbHQd8tuMFa/ndBlUkCwc3ObUBWBeq/FzgtQGkhVcAcZ7M/
lpc_rms=-28.46
offset=592
sample=Cimbasso_sustain_FF_B1.opus
</region>

<region>
hivel=127
key=B2
loop_end=188172
loop_mode=loop_continuous
loop_start=57194
loop_xfade=18140
lovel=0
lpc=1IALQ42i7sOyRilEs+IVxOs4AUSimf/DxsTtQ6zoxcMqj5pD6Ypsw2VMJEMjG5LCESZhwI+D3kG7ptzBMQsVQnLWU8JoMWRCglU4wiML4kHu6iXBmwoEQaUPWcEGSNVA
lpc_rms=-23.62
offset=736
sample=Cimbasso_sustain_FF_B2.opus
</region>

<region>
hivel=127
key=B3
loop_end=190661
loop_mode=loop_continuous
loop_start=57951
loop_xfade=18380
lovel=0
lpc=rpRIQ3x4DcT+iRxEYAwMxBVHGkQ3dvXDFAOxQ0rbnMNUlCpDwCClwpjfBUJR8F9CeH9FwnPlGEF/qkfBKYoeQYcemb933pfBe8AGQnKdh8CrOBrBH9Z2wSlLYkGZnJC9
lpc_rms=-22.36
offset=317
sample=Cimbasso_sustain_FF_B3.opus
</region>

<region>
hivel=127
key=C#2
loop_end=188509
loop_mode=loop_continuous
loop_start=57297
loop_xfade=18173
lovel=0
lpc=Q8r8QfoS0cIQ0SZDM9JBwwDhRUMA6znDsy8lQ3UZDsOpIO9C7xDIwnW4pkKYJIrCxxFjQnX/N8Kecg9C5FnOwdtYj0HUNUfBuNLhQBxRn7+oMifAjcx+QJjRS8AdPo8/
lpc_rms=-27.18
offset=569
sample=Cimbasso_sustain_FF_C#2.opus
</region>

<region>
hivel=127
key=C#3
loop_end=184469
loop_mode=loop_continuous
loop_start=56069
loop_xfade=17783
lovel=0
lpc=Eb/AQnKlvMOntyhErsNAxLuyKUScEQPEuJjDQ/vwm8NGB4pDYkJ5w0FyTEPOYAXDj/NXQvLnFkDx/7rBmnLXQa4vBMJvRBJCX4MBwo6Y+kFUcwXCB8TuQUSYkMFsgKhA
lpc_rms=-22.26
offset=760
sample=Cimbasso_sustain_FF_C#3.opus
</region>

<region>
hivel=127
key=C2
loop_end=178511
loop_mode=loop_continuous
loop_start=54258
loop_xfade=17209
lovel=0
lpc=e404QpjvIcMmuoJDvFqLw/9qb0OuKTbDliH5QnC7mMJGVDJCCLXswQ1pyUGeULnBlwqaQeeWWsGL68dA8ocrPxCDEcDmgVk/58zgv/V0kkA9wazALI2LQKCIJ8Dzeko/
lpc_rms=-29.21
offset=439
sample=Cimbasso_sustain_FF_C2.opus
</region>

<region>
hivel=127
key=C3
loop_end=189953
loop_mode=loop_continuous
loop_start=57736
loop_xfade=18312
lovel=0
lpc=/Y/3QnYr3cOwlR9EnrT+w77brkOz7anDd5WkQxNbgsPl0U9DtOUuw58AB0PSCq3CMpUxQule98FZ1tBBEocIQbXgOMJyeTVCGpTqwQkb2kFP18PBy1lZQVW3vMD0S/8/
lpc_rms=-25.00
offset=275
sample=Cimbasso_sustain_FF_C3.opus
</region>

<region>
hivel=127
key=C4
loop_end=189425
loop_mode=loop_continuous
loop_start=57575
loop_xfade=18261
lovel=0
lpc=0/rVQmh8msPV1qxD0iOIw19Xi0P5qYLD7IZaQ/HXS8NX9iJDiED/wnKiv0IE9h7Cuvp5QbiZlMHN6utAceFKQTYysMG7kRRAGiSJQbhN4cCgF1PAwN++QLwuNcEWx9lA
lpc_rms=-24.27
offset=1358
sample=Cimbasso_sustain_FF_C4.opus
</region>

<region>
hivel=127
key=D#2
loop_end=176436
loop_mode=loop_continuous
loop_start=53627
loop_xfade=17009
lovel=0
lpc=+taLQsrPfMMuztFDAtLow7ej1UMbTbTDRvqSQ3PNbcNehkFDK6Egw3tgB0O3ZNzCq5qhQhk3S8Inhc1BKvjvwA0hP8D90AxBvRB0wdenmUHo63fBlQ8hQdbZ08CjPBhA
lpc_rms=-24.96
offset=1037
sample=Cimbasso_sustain_FF_D#2.opus
</region>

<region>
hivel=127
key=D#3
loop_end=188579
loop_mode=loop_continuous
loop_start=57318
loop_xfade=18180
lovel=0
lpc=l7EMQ6UnCcSmDmNETWJXxHryFUQHwOfDOd/hQ11R0sMKnrFDNWSWwwQCdEMNViHDnlypQgpmR8LgWShCrGADwsSUuEFfAbXBIWjCQSy+kcFFludAY59HwIAAl0C90R3A
lpc_rms=-20.46
offset=332
sample=Cimbasso_sustain_FF_D#3.opus
</region>

<region>
hivel=127
key=D2
loop_end=188736
loop_mode=loop_continuous
loop_start=57366
loop_xfade=18195
lovel=0
lpc=HhgAQ5QX38MO8BtEPtPsw4wgjEOlcVXDBXIvQ1EP8MJIgKBCireQwhDCi0KfgR7C1K5BQK2ZhkBcpB4+9gQ8QRW64cF01/dBd7/CwTDZhkEyLzTBrWc+QRkmPMFNlZJA
lpc_rms=-27.17
offset=735
sample=Cimbasso_sustain_FF_D2.opus
</region>

<region>
hivel=127
key=D3
loop_end=185062
loop_mode=loop_continuous
loop_start=56249
loop_xfade=17841
lovel=0
lpc=kw1JQ+ACOMQHvYlEk55mxA6tGEQQgf3D4+bqQ2NvusPqcIhDJrdhw0IyNENti6LCs9xgwW45EUIY6/PBItxqQt74pcKeiHBCok64wcSnUEFNqRbCTo2GQseVXcJmPYpB
lpc_rms=-21.66
offset=489
sample=Cimbasso_sustain_FF_D3.opus
</region>

<region>
hivel=127
key=E1
loop_end=183460
loop_mode=loop_continuous
loop_start=55762
loop_xfade=17686
lovel=0
lpc=ivouQysc6sNtFM1D42FDw+3xRkMnfRPD7HgcQs+L7cF6i19BrE+KPk2/w0D+h4dBNHD6wc+XC8EH9K1BBML4QII/i8CcU9fA8NM5QTyvOMGAqYG+zGiGwPGkHEHKgU/A
lpc_rms=-32.16
offset=1576
sample=Cimbasso_sustain_FF_E1.opus
</region>

<region>
hivel=127
key=E2
loop_end=189627
loop_mode=loop_continuous
loop_start=57637
loop_xfade=18281
lovel=0
lpc=dOuKQnd4gsOOf95DaLL1w7N23EOkALrDlreZQykme8P8LFJDdBQ7w7y1KEO+fQXDCEOaQtWcmsEqp9XBoSx2QjXqocIbVaVCAYeRwmguX0IlYAjCRQ6BQQUgzsBRfNU/
lpc_rms=-25.86
offset=161
sample=Cimbasso_sustain_FF_E2.opus
</region>

<region>
hivel=127
key=E3
loop_end=187795
loop_mode=loop_continuous
loop_start=57080
loop_xfade=18104
lovel=0
lpc=NOjiQoLsssNSEdVDrKWTw/WpjkNp86rDaFeLQ8wISMNeez9DNQw/wzxmE0PEHZfC9UUdQptzL8JcJ7tBRUR7QT+xhcEcLeK/eTNnwAHqq0GQyc7BtzmHQcXD6MCJs/g/
lpc_rms=-26.79
offset=694
sample=Cimbasso_sustain_FF_E3.opus
</region>

<region>
hivel=127
key=F#1
loop_end=155598
loop_mode=loop_continuous
loop_start=47294
loop_xfade=15000
lovel=0
lpc=DLDFQirxpcPZvdhDOm+Hw1fGvUIXZYTC4YCfQkHyQ8J3OPZAauDbQKUzxMB1wLlAz6/KvyJE0sDeQI9AHUy/QH0JpsAKgdDAJ6/0QN+4iECnsR7BZVeaQDUv0zveBOS+
lpc_rms=-33.31
offset=1433
sample=Cimbasso_sustain_FF_F#1.opus
</region>

<region>
hivel=127
key=F#2
loop_end=177421
loop_mode=loop_continuous
loop_start=53927
loop_xfade=17104
lovel=0
lpc=3DYXQ2ehCcQGXE1E8ZkrxKta3kO+1aPD/HhxQzcbGMORLdJCX0ytwocLgEL6gdDBR8IEwe+GQkESWTtAwK4mwNwiLcGn5UNBG5LPwKE/2kD0rV/A1axcwD29NkC159W9
lpc_rms=-24.01
offset=279
sample=Cimbasso_sustain_FF_F#2.opus
</region>

<region>
hivel=127
key=F#3
loop_end=188958
loop_mode=loop_continuous
loop_start=57433
loop_xfade=18216
lovel=0
lpc=TXc0QwJ8GcSEGD1Ei9LMw7rGXkNHb5bDf8pOQ/ZplsICUe9Ch/gJw8QydULA6YfBt+GWQYMUmMEKhAtBdfqVQIplPsH9hKVAUiopPwfFgkFOGeTBfierQC7/cEENv/rA
lpc_rms=-24.66
offset=712
sample=Cimbasso_sustain_FF_F#3.opus
</region>

<region>
hivel=127
key=F1
loop_end=180365
loop_mode=loop_continuous
loop_start=54821
loop_xfade=17388
lovel=0
lpc=JqfZQktqmMO5FZdDdY4+w47EVkNK203D/oDvQqC9t8JMBJJCbb8qwioe5EG9R5rAHgQowT+XZECBIRrBNAHVQbOQ3MF47YhBY0U0wZojSEEQlhrB5oXnP4pO2j/K1FS/
lpc_rms=-32.89
offset=605
sample=Cimbasso_sustain_FF_F1.opus
</region>

<region>
hivel=127
key=F2
loop_end=183640
loop_mode=loop_continuous
loop_start=55817
loop_xfade=17703
lovel=0
lpc=0EULQieD2sJkEiBDtmsqw3vXI0NW5hLDDez7QgNT1cILnLNCqTyXwj6LfEKvlk/C9+EoQs5uBMJR8cBBstxqwcjlukASnjQ/afLMwO1YPEEeelbBlbU0QRvK5sC0NxVA
lpc_rms=-23.76
offset=792
sample=Cimbasso_sustain_FF_F2.opus
</region>

<region>
hivel=127
key=F3
loop_end=188597
loop_mode=loop_continuous
loop_start=57323
loop_xfade=18181
lovel=0
lpc=vQxYQ4VbKsRRoEpE6TYTxNXzFkRSQCrEZZUFREtPz8Pfy79DQrehwy94YENuJPPCAxPXQlIBBMPt4ClC8tScQlntssKhKTBCuWUXwiGamUJmi8bC5hKQQlMB/MGLIvVA
lpc_rms=-21.23
offset=452
sample=Cimbasso_sustain_FF_F3.opus
</region>

<region>
hivel=127
key=G#1
loop_end=171094
loop_mode=loop_continuous
loop_start=52004
loop_xfade=16494
lovel=0
lpc=ktwEQ1XOwMN80LhD1Y8Cw8yzoULu4NTC4ugPQqWekMEO9hZCPUKIwefyDkF/u8vAUKQGwWckgz/EUgVB2xk9P0KaWcB3Hoy/vQ7bvU08M0A38SjAxZmyQLmCAsHXbmlA
lpc_rms=-31.83
offset=757
sample=Cimbasso_sustain_FF_G#1.opus
</region>

<region>
hivel=127
key=G#2
loop_end=190163
loop_mode=loop_continuous
loop_start=57799
loop_xfade=18332
lovel=0
lpc=jxVpQylUQMQagWtE1LQLxLBrl0P4R47DlcAzQ7Rmh8LYW5BCpLe5wibFGkIxewpCqlIswrnlGUH1rTdB7rIlwfCDrT8iIaXAftG5Qai9D8JIDvpBE+cvwXxopcB7XoFA
lpc_rms=-25.31
sample=Cimbasso_sustain_FF_G#2.opus
</region>

<region>
hivel=127
key=G#3
loop_end=187774
loop_mode=loop_continuous
loop_start=57073
loop_xfade=18102
lovel=0
lpc=BmEhQxxHD8Q3Yk1E09QgxD5VyEPUrKrD9ISkQ5nAjMP4F2lDmW82w+xi4UKrjiLCyFZ6wHzGfEE/2IvBRnm0QZYOiMGWygTB8mzwQcEtW8HFfNjB2NAgQpC2nsHbukRA
lpc_rms=-21.53
offset=442
sample=Cimbasso_sustain_FF_G#3.opus
</region>

<region>
hivel=127
key=G1
loop_end=178662
loop_mode=loop_continuous
loop_start=54304
loop_xfade=17223
lovel=0
lpc=Vy8KQ476usOqWJlDcUGSwrTWlEIT1rLC2TTZQOi+QsFn7c5B7FBGQNgkiMANdb8/ybukv5mWksBd1oHAA7sMQfL/OT8+xnnAcj9AwIjOs0BcilE/+7k7wMGuUD6UYIQ+
lpc_rms=-33.68
offset=1597
sample=Cimbasso_sustain_FF_G1.opus
</region>

<region>
hivel=127
key=G2
loop_end=189358
loop_mode=loop_continuous
loop_start=57555
loop_xfade=18255
lovel=0
lpc=BUJzQvaPYMP1lcBDUYzew+dH1UOlqrvDJPecQ4imecMzQjtD6oAHwyW1vkJh+XXC2GQGQiMLS8FoinjAgoWOQbhIz8HL1txBzWrjwTeY7kEKW+bB8Y/KQQCWhsF/uKlA
lpc_rms=-27.07
offset=428
sample=Cimbasso_sustain_FF_G2.opus
</region>

<region>
hivel=127
key=G3
loop_end=187017
loop_mode=loop_continuous
loop_start=56843
loop_xfade=18029
lovel=0
lpc=sRMFQ1UC6MOTZx5EoPXgwxJujEMnt5jDZw6VQ9MKPsNUNfNCHcgAwxoG2kKJk8jBeqaxwdLvi0AUUVTBT81NQuFFO8IQiipArVGYQSQeE0GEIfzB3xS3QIf1i0Fpyw3B
lpc_rms=-25.82
offset=1211
sample=Cimbasso_sustain_FF_G3.opus
</region>
</group>